<svg width="20" height="20" viewBox="0 0 20 20" fill="none" xmlns="http://www.w3.org/2000/svg">
<g id="Right Icon">
<g id="Group">
<path id="Vector" d="M5.14199 15.0004C5.31416 14.5125 5.63344 14.0899 6.05583 13.7911C6.47821 13.4922 6.9829 13.3317 7.50033 13.3317C8.01775 13.3317 8.52244 13.4922 8.94483 13.7911C9.36721 14.0899 9.68649 14.5125 9.85866 15.0004H17.5003C17.9606 15.0004 18.3337 15.3735 18.3337 15.8337C18.3337 16.294 17.9606 16.6671 17.5003 16.6671H9.85866C9.68649 17.155 9.36721 17.5776 8.94483 17.8764C8.52244 18.1753 8.01775 18.3358 7.50033 18.3358C6.9829 18.3358 6.47821 18.1753 6.05583 17.8764C5.63344 17.5776 5.31416 17.155 5.14199 16.6671H2.50033C2.04009 16.6671 1.66699 16.294 1.66699 15.8337C1.66699 15.3735 2.04009 15.0004 2.50033 15.0004H5.14199ZM10.142 9.16708C10.3142 8.67914 10.6334 8.25661 11.0558 7.95774C11.4782 7.65887 11.9829 7.49837 12.5003 7.49837C13.0178 7.49837 13.5224 7.65887 13.9448 7.95774C14.3672 8.25661 14.6865 8.67914 14.8587 9.16708H17.5003C17.9606 9.16708 18.3337 9.54018 18.3337 10.0004C18.3337 10.4607 17.9606 10.8337 17.5003 10.8337H14.8587C14.6865 11.3217 14.3672 11.7442 13.9448 12.0431C13.5224 12.342 13.0178 12.5025 12.5003 12.5025C11.9829 12.5025 11.4782 12.342 11.0558 12.0431C10.6334 11.7442 10.3142 11.3217 10.142 10.8337H2.50033C2.04009 10.8337 1.66699 10.4607 1.66699 10.0004C1.66699 9.54018 2.04009 9.16708 2.50033 9.16708H10.142ZM5.14199 3.33375C5.31416 2.8458 5.63344 2.42328 6.05583 2.12441C6.47821 1.82554 6.9829 1.66504 7.50033 1.66504C8.01775 1.66504 8.52244 1.82554 8.94483 2.12441C9.36721 2.42328 9.68649 2.8458 9.85866 3.33375H17.5003C17.9606 3.33375 18.3337 3.70684 18.3337 4.16708C18.3337 4.62732 17.9606 5.00041 17.5003 5.00041H9.85866C9.68649 5.48836 9.36721 5.91089 8.94483 6.20976C8.52244 6.50863 8.01775 6.66912 7.50033 6.66912C6.9829 6.66912 6.47821 6.50863 6.05583 6.20976C5.63344 5.91089 5.31416 5.48836 5.14199 5.00041H2.50033C2.04009 5.00041 1.66699 4.62732 1.66699 4.16708C1.66699 3.70684 2.04009 3.33375 2.50033 3.33375H5.14199ZM7.50033 5.00041C7.72134 5.00041 7.9333 4.91262 8.08958 4.75634C8.24586 4.60006 8.33366 4.38809 8.33366 4.16708C8.33366 3.94607 8.24586 3.73411 8.08958 3.57783C7.9333 3.42155 7.72134 3.33375 7.50033 3.33375C7.27931 3.33375 7.06735 3.42155 6.91107 3.57783C6.75479 3.73411 6.66699 3.94607 6.66699 4.16708C6.66699 4.38809 6.75479 4.60006 6.91107 4.75634C7.06735 4.91262 7.27931 5.00041 7.50033 5.00041ZM12.5003 10.8337C12.7213 10.8337 12.9333 10.746 13.0896 10.5897C13.2459 10.4334 13.3337 10.2214 13.3337 10.0004C13.3337 9.7794 13.2459 9.56744 13.0896 9.41116C12.9333 9.25488 12.7213 9.16708 12.5003 9.16708C12.2793 9.16708 12.0674 9.25488 11.9111 9.41116C11.7548 9.56744 11.667 9.7794 11.667 10.0004C11.667 10.2214 11.7548 10.4334 11.9111 10.5897C12.0674 10.746 12.2793 10.8337 12.5003 10.8337ZM7.50033 16.6671C7.72134 16.6671 7.9333 16.5793 8.08958 16.423C8.24586 16.2667 8.33366 16.0548 8.33366 15.8337C8.33366 15.6127 8.24586 15.4008 8.08958 15.2445C7.9333 15.0882 7.72134 15.0004 7.50033 15.0004C7.27931 15.0004 7.06735 15.0882 6.91107 15.2445C6.75479 15.4008 6.66699 15.6127 6.66699 15.8337C6.66699 16.0548 6.75479 16.2667 6.91107 16.423C7.06735 16.5793 7.27931 16.6671 7.50033 16.6671Z" fill="#FF7B2C"/>
</g>
</g>
</svg>
