<svg width="16" height="16" viewBox="0 0 16 16" fill="none" xmlns="http://www.w3.org/2000/svg">
<g id="Icons/star-half">
<path id="Vector" d="M14.0215 6.49486L14.0362 6.49701L14.051 6.49828C14.0832 6.50103 14.1138 6.51304 14.1392 6.53286C14.1599 6.54894 14.1764 6.56959 14.1875 6.59309C14.1913 6.61809 14.1893 6.64371 14.1817 6.66799C14.1723 6.69808 14.1545 6.72488 14.1304 6.74527L14.1177 6.75602L14.1058 6.7676L11.3525 9.43427L11.1619 9.61884L11.2079 9.88012L11.8745 13.6668L11.8745 13.6668L11.8758 13.6736C11.8818 13.7049 11.8786 13.7372 11.8668 13.7667C11.855 13.7962 11.835 13.8218 11.8091 13.8403L11.8071 13.8418C11.7785 13.8625 11.7441 13.8736 11.7088 13.8734L11.7053 13.8734C11.6845 13.8735 11.6641 13.8682 11.646 13.8579L11.6392 13.8541L11.6322 13.8505L8.23222 12.0705L8.00031 11.9491L7.7684 12.0705L4.3684 13.8505L4.36125 13.8542L4.35421 13.8582C4.32626 13.874 4.29433 13.8814 4.26227 13.8795C4.23021 13.8776 4.19938 13.8664 4.1735 13.8474C4.14762 13.8284 4.12778 13.8023 4.11638 13.7723C4.10497 13.7423 4.10248 13.7096 4.10921 13.6782L4.11114 13.6692L4.11274 13.6601L4.7794 9.87346L4.8254 9.61218L4.63483 9.4276L1.88508 6.76441C1.86458 6.74332 1.85001 6.71718 1.84287 6.68862C1.83591 6.66078 1.83626 6.63164 1.84385 6.60401C1.8538 6.5762 1.87097 6.55151 1.89363 6.53248C1.91749 6.51245 1.94649 6.49951 1.97734 6.49512L1.97734 6.49513L1.98 6.49474L5.77333 5.93474L6.0325 5.89648L6.14856 5.66162L7.84856 2.22162L7.84858 2.22162L7.85031 2.21804C7.86396 2.18986 7.88527 2.1661 7.9118 2.14947C7.93832 2.13284 7.969 2.12402 8.00031 2.12402C8.03162 2.12402 8.0623 2.13284 8.08883 2.14947C8.11535 2.1661 8.13666 2.18986 8.15031 2.21804L8.1503 2.21805L8.15189 2.22127L9.85189 5.66794L9.96812 5.9036L10.2281 5.94153L14.0215 6.49486ZM10.8398 9.50618C10.8482 9.48082 10.8625 9.45783 10.8816 9.43917C10.8817 9.43904 10.8819 9.43891 10.882 9.43878L12.914 7.48008L13.6489 6.77164L12.6387 6.62526L9.83201 6.2186L9.83201 6.21859L9.8292 6.2182C9.80219 6.21444 9.77653 6.20412 9.75445 6.18814C9.73236 6.17216 9.71454 6.151 9.70253 6.12653L9.70235 6.12617L9.11568 4.93284L8.16698 5.15343V11.3334V11.6353L8.4341 11.7759L10.5874 12.9092L11.4844 13.3813L11.3131 12.3823L10.8337 9.58545C10.8336 9.5851 10.8335 9.58476 10.8335 9.58442C10.8293 9.55821 10.8315 9.53139 10.8398 9.50618Z" fill="#FFB01D" stroke="#FFB01D"/>
</g>
</svg>
